<svg xmlns="http://www.w3.org/2000/svg" viewBox="50 50 300 300" width="300" height="300">
	<defs>
		<linearGradient id="dbw" x1="0%" y1="0%" x2="100%" y2="100%">
			<stop offset="0%" stop-color="#ea2b1f"/>
			<stop offset="25%" stop-color="#ff3c6f"/>
			<stop offset="50%" stop-color="#ff4fdd"/>
			<stop offset="75%" stop-color="#7e56ff"/>
			<stop offset="100%" stop-color="#00b2ff"/>
		</linearGradient>
	</defs>
	<g transform="translate(200 200)">
		<rect x="-78" y="-78" width="156" height="156" rx="30" transform="rotate(-25)" fill="url(#dbw)" opacity="0.4"/>
		<rect x="-78" y="-78" width="156" height="156" rx="30" transform="rotate(25)"  fill="url(#dbw)" opacity="0.4"/>
		<rect x="-78" y="-78" width="156" height="156" rx="30" fill="url(#dbw)"/>
	</g>
	<svg x="135" y="135" width="130" height="130" viewBox="0 -960 960 960">
		<path fill="#fff" d="M200-120q-33 0-56.5-23.5T120-200v-560q0-33 23.5-56.5T200-840h168q13-36 43.5-58t68.5-22q38 0 68.5 22t43.5 58h168q33 0 56.5 23.5T840-760v268q-19-9-39-15.5t-41-9.5v-243H200v560h242q3 22 9.5 42t15.5 38H200Zm0-120v40-560 243-3 280Zm80-40h163q3-21 9.5-41t14.5-39H280v80Zm0-160h244q32-30 71.5-50t84.5-27v-3H280v80Zm0-160h400v-80H280v80Zm221.5-198.5Q510-807 510-820t-8.5-21.5Q493-850 480-850t-21.5 8.5Q450-833 450-820t8.5 21.5Q467-790 480-790t21.5-8.5ZM720-40q-83 0-141.5-58.5T520-240q0-83 58.5-141.5T720-440q83 0 141.5 58.5T920-240q0 83-58.5 141.5T720-40Zm-20-80h40v-100h100v-40H740v-100h-40v100H600v40h100v100Z"/>
	</svg>
</svg>
